<svg width="74" height="80" viewBox="0 0 74 80" fill="none" xmlns="http://www.w3.org/2000/svg">
<path d="M51.9609 21.0219L44.9781 14.0406C44.3921 13.4548 43.5974 13.1257 42.7688 13.1257C41.9401 13.1257 41.1454 13.4548 40.5594 14.0406L21.2906 33.3078C20.9995 33.5972 20.7686 33.9415 20.6114 34.3207C20.4543 34.7 20.3739 35.1067 20.375 35.5172V42.5C20.375 43.3288 20.7043 44.1237 21.2903 44.7097C21.8764 45.2958 22.6712 45.625 23.5 45.625H30.4828C30.8934 45.6262 31.3001 45.5459 31.6793 45.3887C32.0586 45.2315 32.4029 45.0006 32.6922 44.7094L45.1078 32.2953L45.7578 34.4656L40.3 39.9234C39.9478 40.2757 39.7499 40.7534 39.7499 41.2516C39.7499 41.7497 39.9478 42.2274 40.3 42.5797C40.6523 42.9319 41.13 43.1298 41.6281 43.1298C42.1263 43.1298 42.604 42.9319 42.9563 42.5797L49.2063 36.3297C49.4456 36.09 49.6156 35.7901 49.6981 35.4616C49.7806 35.1331 49.7727 34.7884 49.675 34.4641L48.1219 29.2875L51.9641 25.4453C52.2547 25.1549 52.4851 24.8099 52.6422 24.4303C52.7994 24.0507 52.8801 23.6438 52.8798 23.2329C52.8795 22.8221 52.7982 22.4153 52.6405 22.0359C52.4829 21.6565 52.2519 21.3119 51.9609 21.0219ZM26.1563 33.75L37.25 22.6563L43.3438 28.75L32.25 39.8438L26.1563 33.75ZM24.125 37.0313L28.9688 41.875H24.125V37.0313ZM46 26.0938L39.9063 20L42.7719 17.1344L48.8656 23.2281L46 26.0938Z" fill="#B3D5AE"/>
<rect x="2.5" y="2.5" width="69" height="54" stroke="#B3D5AE" stroke-width="5"/>
<rect x="1.25" y="76.25" width="71.5" height="2.5" stroke="#B3D5AE" stroke-width="2.5"/>
<path d="M9.744 71.698L9.422 73H6.664V72.86C6.71067 72.1227 6.734 71.376 6.734 70.62V69.094C6.202 69.1873 5.656 69.234 5.096 69.234C3.88267 69.234 2.89333 68.926 2.128 68.31C1.36267 67.694 0.98 66.7747 0.98 65.552C0.98 65.356 0.989333 65.1553 1.008 64.95C1.036 64.7447 1.06867 64.544 1.106 64.348C1.022 64.348 0.896 64.3667 0.728 64.404C0.56 64.4413 0.396667 64.4787 0.238 64.516C0.200667 64.5253 0.163333 64.5347 0.126 64.544C0.098 64.5533 0.07 64.5627 0.042 64.572L0 64.488L0.28 63.2H2.828V63.27L2.814 63.326C2.71133 63.7927 2.64133 64.1707 2.604 64.46C2.56667 64.7493 2.548 65.1367 2.548 65.622C2.548 66.406 2.79067 66.994 3.276 67.386C3.77067 67.7687 4.42867 67.96 5.25 67.96C5.67933 67.96 6.11333 67.9133 6.552 67.82C6.58 67.8107 6.608 67.806 6.636 67.806C6.67333 67.7967 6.706 67.7873 6.734 67.778V65.58C6.734 64.824 6.71067 64.0773 6.664 63.34V63.2H8.414V63.34C8.36733 63.928 8.344 64.6747 8.344 65.58V71.852C8.46533 71.852 8.666 71.824 8.946 71.768C9.226 71.712 9.47333 71.6607 9.688 71.614L9.744 71.698ZM21.3029 71.698L20.9809 73H18.2509V72.86C18.2975 72.272 18.3209 71.5253 18.3209 70.62V65.398L12.1609 73.462H11.8669V73.322C11.8762 72.9113 11.8902 72.5287 11.9089 72.174C11.9089 71.9687 11.9089 71.768 11.9089 71.572C11.9182 71.3667 11.9229 71.166 11.9229 70.97V64.348C11.8015 64.348 11.6009 64.376 11.3209 64.432C11.0409 64.4787 10.7935 64.5253 10.5789 64.572L10.5229 64.488L10.8449 63.2H13.5749V63.34C13.5282 64.0773 13.5049 64.824 13.5049 65.58V69.598L18.3909 63.2H19.9729V63.34C19.9262 64.32 19.9029 65.0667 19.9029 65.58V71.852C20.0242 71.852 20.2249 71.824 20.5049 71.768C20.7849 71.712 21.0322 71.6607 21.2469 71.614L21.3029 71.698ZM30.3773 65.958L30.3353 65.86C30.2139 65.5613 30.0459 65.3047 29.8313 65.09C29.6259 64.866 29.3273 64.684 28.9353 64.544C28.5433 64.404 28.0393 64.334 27.4233 64.334H27.3253V71.852C27.4839 71.852 27.7546 71.824 28.1373 71.768C28.5293 71.712 28.8233 71.6607 29.0193 71.614L29.0753 71.698L28.7533 73H25.6453V72.86C25.6919 72.1227 25.7153 71.376 25.7153 70.62V64.334H25.6173C25.0013 64.334 24.4973 64.404 24.1053 64.544C23.7133 64.684 23.4099 64.866 23.1953 65.09C22.9899 65.314 22.8266 65.5707 22.7053 65.86L22.6633 65.958L21.7253 65.622L22.5653 62.36H23.9653L24.0073 62.416L23.6013 63.2H29.4393L29.0333 62.416L29.0753 62.36H30.4753L31.3153 65.622L30.3773 65.958ZM30.8223 72.846C30.9343 72.622 31.0323 72.412 31.1163 72.216C31.2096 72.02 31.2983 71.8333 31.3823 71.656C31.5596 71.292 31.737 70.9047 31.9143 70.494C32.101 70.074 32.3063 69.5887 32.5303 69.038L34.4483 64.404C34.2896 64.3947 34.117 64.39 33.9303 64.39C33.7436 64.3807 33.5476 64.376 33.3423 64.376C33.2863 64.376 33.2303 64.376 33.1743 64.376C33.1183 64.376 33.0576 64.376 32.9923 64.376L33.3983 63.144C33.8183 63.172 34.2756 63.1907 34.7703 63.2C35.265 63.2 35.6943 63.2 36.0583 63.2H36.6883C37.0803 64.2827 37.4256 65.1693 37.7243 65.86L39.4883 69.962C39.5816 70.1767 39.6656 70.3727 39.7403 70.55C39.9083 70.9327 40.0763 71.3153 40.2443 71.698C40.4216 72.0807 40.6036 72.468 40.7903 72.86V73H37.4723L37.1223 71.698L37.1643 71.614L37.3883 71.67C37.575 71.7167 37.771 71.7587 37.9763 71.796C38.191 71.8333 38.3683 71.852 38.5083 71.852L37.7943 70.074H33.5523C33.5243 70.1393 33.4963 70.2047 33.4683 70.27C33.4403 70.3353 33.4123 70.4007 33.3843 70.466C33.123 71.11 32.9456 71.572 32.8523 71.852C32.9736 71.852 33.137 71.8333 33.3423 71.796C33.557 71.7587 33.7623 71.7167 33.9583 71.67C33.9956 71.6607 34.033 71.6513 34.0703 71.642C34.117 71.6327 34.159 71.6233 34.1963 71.614L34.2523 71.698L33.9163 73H30.8223V72.846ZM37.2763 68.786L36.3243 66.406C36.315 66.3873 36.3056 66.3687 36.2963 66.35C36.287 66.322 36.2776 66.2987 36.2683 66.28C36.1003 65.86 35.9603 65.5427 35.8483 65.328C35.7456 65.104 35.6383 64.922 35.5263 64.782L34.0563 68.786H37.2763ZM51.6681 71.698L51.3461 73H48.6161V72.86C48.6628 72.272 48.6861 71.5253 48.6861 70.62V65.398L42.5261 73.462H42.2321V73.322C42.2414 72.9113 42.2554 72.5287 42.2741 72.174C42.2741 71.9687 42.2741 71.768 42.2741 71.572C42.2834 71.3667 42.2881 71.166 42.2881 70.97V64.348C42.1668 64.348 41.9661 64.376 41.6861 64.432C41.4061 64.4787 41.1588 64.5253 40.9441 64.572L40.8881 64.488L41.2101 63.2H43.9401V63.34C43.8934 64.0773 43.8701 64.824 43.8701 65.58V69.598L48.7561 63.2H50.3381V63.34C50.2914 64.32 50.2681 65.0667 50.2681 65.58V71.852C50.3894 71.852 50.5901 71.824 50.8701 71.768C51.1501 71.712 51.3974 71.6607 51.6121 71.614L51.6681 71.698ZM48.9661 59.686C48.9661 60.162 48.8494 60.5867 48.6161 60.96C48.3921 61.324 48.0748 61.6087 47.6641 61.814C47.2534 62.01 46.7774 62.108 46.2361 62.108C45.7041 62.108 45.2281 62.01 44.8081 61.814C44.3974 61.6087 44.0754 61.324 43.8421 60.96C43.6181 60.5867 43.5061 60.162 43.5061 59.686V59.602L44.7101 59.476V59.672C44.7101 60.0827 44.8454 60.4093 45.1161 60.652C45.3961 60.8947 45.7694 61.016 46.2361 61.016C46.7028 61.016 47.0761 60.8947 47.3561 60.652C47.6361 60.4093 47.7761 60.0827 47.7761 59.672V59.476L48.9661 59.602V59.686ZM52.3005 70.004L53.5745 69.696L53.6165 69.906C53.6258 69.9247 53.6305 69.9433 53.6305 69.962C53.6305 69.9713 53.6352 69.9853 53.6445 70.004C53.7192 70.3587 53.7798 70.634 53.8265 70.83C53.8825 71.026 53.9525 71.1893 54.0365 71.32C54.1205 71.4413 54.2278 71.502 54.3585 71.502C54.5265 71.502 54.6992 71.2687 54.8765 70.802C55.0538 70.3353 55.2032 69.6167 55.3245 68.646C55.4458 67.666 55.5065 66.4573 55.5065 65.02C55.5065 64.908 55.5065 64.796 55.5065 64.684C55.5065 64.572 55.5065 64.46 55.5065 64.348C55.3852 64.348 55.1892 64.376 54.9185 64.432C54.6478 64.4787 54.4098 64.5253 54.2045 64.572L54.1485 64.488L54.4565 63.2H61.6945V63.34C61.6758 63.7507 61.6665 64.0307 61.6665 64.18C61.6385 64.6653 61.6245 65.132 61.6245 65.58V71.852C61.7458 71.852 61.9465 71.824 62.2265 71.768C62.5065 71.712 62.7538 71.6607 62.9685 71.614L63.0245 71.698L62.7025 73H59.9445V72.86C59.9912 72.1227 60.0145 71.376 60.0145 70.62V64.586H57.1165C57.1072 64.754 57.0932 64.922 57.0745 65.09C57.0652 65.258 57.0512 65.426 57.0325 65.594C56.9018 67.0313 56.7478 68.282 56.5705 69.346C56.3932 70.4007 56.1412 71.2827 55.8145 71.992C55.4972 72.7013 55.0912 73.056 54.5965 73.056C54.5592 73.056 54.5218 73.056 54.4845 73.056C54.4472 73.056 54.4098 73.0513 54.3725 73.042C54.3632 73.0327 54.3492 73.028 54.3305 73.028C54.3118 73.028 54.2978 73.0233 54.2885 73.014L54.4845 73.644L54.4145 73.77H53.0005L52.3005 70.004ZM65.1185 72.86C65.1652 72.272 65.1885 71.5253 65.1885 70.62V64.348C65.0672 64.348 64.8665 64.376 64.5865 64.432C64.3065 64.4787 64.0592 64.5253 63.8445 64.572L63.7885 64.488L64.1105 63.2H66.8825V63.34C66.8452 63.7507 66.8218 64.138 66.8125 64.502C66.8032 64.8567 66.7985 65.216 66.7985 65.58V67.05H67.9185C68.8332 67.05 69.6078 67.1667 70.2425 67.4C70.8772 67.6333 71.3532 67.974 71.6705 68.422C71.9878 68.8607 72.1465 69.3927 72.1465 70.018C72.1465 70.6433 71.9878 71.18 71.6705 71.628C71.3532 72.076 70.8772 72.4167 70.2425 72.65C69.6078 72.8833 68.8332 73 67.9185 73H65.1185V72.86ZM68.1005 71.712C68.8472 71.712 69.4305 71.558 69.8505 71.25C70.2798 70.942 70.4945 70.5173 70.4945 69.976C70.4945 69.444 70.2798 69.024 69.8505 68.716C69.4212 68.3987 68.8378 68.24 68.1005 68.24H66.7985V71.712H68.1005Z" fill="#B3D5AE"/>
</svg>
