<svg width="104" height="108" viewBox="0 0 104 108" fill="none" xmlns="http://www.w3.org/2000/svg">
<path d="M52 58.5C56.1889 58.5 59.7639 56.9625 62.725 53.8875C65.6861 50.8125 67.1667 47.1 67.1667 42.75C67.1667 38.4 65.6861 34.6875 62.725 31.6125C59.7639 28.5375 56.1889 27 52 27C47.8111 27 44.2361 28.5375 41.275 31.6125C38.3139 34.6875 36.8333 38.4 36.8333 42.75C36.8333 47.1 38.3139 50.8125 41.275 53.8875C44.2361 56.9625 47.8111 58.5 52 58.5ZM13 94.5V13.5H91V94.5H13ZM21.6667 85.5H82.3333V80.325C78.4333 76.35 73.9007 73.2195 68.7353 70.9335C63.57 68.6475 57.9916 67.503 52 67.5C46.0056 67.5 40.4257 68.6445 35.2603 70.9335C30.095 73.2225 25.5638 76.353 21.6667 80.325V85.5Z" fill="#B3D5AE"/>
</svg>
