<svg width="294" height="325" viewBox="0 0 294 325" fill="none" xmlns="http://www.w3.org/2000/svg">
<path d="M289.593 74.056C294.294 82.0964 295.352 91.1947 292.766 101.351L244.284 293.05C242.051 302.078 237.556 309.66 230.797 315.796C224.039 321.932 216.841 325 209.201 325H46.4788C37.4289 325 28.7021 321.227 20.2986 313.68C11.8951 306.133 6.04796 296.859 2.75708 285.856C-0.0636776 276.405 -0.181209 267.448 2.40448 258.984C2.40448 258.42 2.58078 256.516 2.93337 253.271C3.28597 250.027 3.52103 247.418 3.63856 245.443C3.75609 244.314 3.5798 242.798 3.10967 240.894C2.63955 238.989 2.46325 237.614 2.58078 236.768C2.81584 235.216 3.28597 233.735 3.99116 232.324C4.69635 230.914 5.66598 229.256 6.90006 227.352C8.13414 225.448 9.10378 223.79 9.80896 222.38C12.5122 217.019 15.1566 210.566 17.7423 203.019C20.328 195.473 22.091 189.019 23.0313 183.659C23.3838 182.248 23.4132 180.132 23.1194 177.311C22.8256 174.49 22.7962 172.515 23.0313 171.387C23.3838 169.835 24.3829 167.86 26.0283 165.462C27.6737 163.064 28.6728 161.442 29.0254 160.596C31.4935 155.518 33.9617 149.029 36.4298 141.13C38.898 133.23 40.3671 126.883 40.8373 122.087C40.9548 120.817 40.8079 118.56 40.3965 115.316C39.9852 112.071 40.0145 110.097 40.4847 109.391C40.9548 107.558 42.2477 105.406 44.3632 102.938C46.4788 100.469 47.7716 98.8824 48.2417 98.1771C50.4748 94.5096 52.9724 88.5498 55.7344 80.2979C58.4964 72.0459 60.1124 65.2398 60.5826 59.8796C60.7001 58.7511 60.5238 56.9526 60.0537 54.4841C59.5835 52.0155 59.466 50.1465 59.7011 48.877C59.9361 47.7485 60.465 46.479 61.2877 45.0684C62.1105 43.6578 63.1682 42.0356 64.4611 40.2018C65.7539 38.3681 66.753 36.8869 67.4581 35.7585C68.3984 34.0658 69.368 31.9146 70.3671 29.305C71.3661 26.6954 72.2476 24.2269 73.0115 21.8994C73.7755 19.5719 74.7157 17.0329 75.8323 14.2822C76.9488 11.5316 78.0947 9.27463 79.2701 7.51139C80.4454 5.74816 82.0027 4.09071 83.9419 2.53906C85.8812 0.987413 87.9968 0.176324 90.2886 0.105794C92.5805 0.0352648 95.3719 0.423177 98.6627 1.26953L98.4865 1.9043C102.953 0.634766 105.95 0 107.478 0H241.64C250.337 0 257.036 3.94965 261.738 11.849C266.439 19.7483 267.497 28.9171 264.911 39.3555L216.606 231.055C212.374 247.841 208.173 258.667 204 263.534C199.828 268.4 192.277 270.833 181.346 270.833H28.1439C24.9705 270.833 22.7374 271.891 21.4446 274.007C20.1517 276.264 20.093 279.297 21.2683 283.105C24.089 292.98 32.5513 297.917 46.6551 297.917H209.377C212.786 297.917 216.077 296.823 219.25 294.637C222.423 292.451 224.48 289.524 225.42 285.856L278.31 77.0182C279.132 73.9149 279.426 69.8948 279.191 64.9577C283.657 67.0736 287.124 70.1063 289.593 74.056ZM102.012 74.4792C101.542 76.3129 101.66 77.8998 102.365 79.2399C103.07 80.58 104.245 81.25 105.891 81.25H213.08C214.608 81.25 216.106 80.58 217.575 79.2399C219.044 77.8998 220.014 76.3129 220.484 74.4792L224.186 60.9375C224.656 59.1037 224.539 57.5168 223.834 56.1768C223.129 54.8367 221.953 54.1667 220.308 54.1667H113.119C111.591 54.1667 110.093 54.8367 108.624 56.1768C107.154 57.5168 106.185 59.1037 105.715 60.9375L102.012 74.4792ZM87.3797 128.646C86.9096 130.48 87.0271 132.067 87.7323 133.407C88.4375 134.747 89.6128 135.417 91.2583 135.417H198.447C199.975 135.417 201.473 134.747 202.943 133.407C204.412 132.067 205.381 130.48 205.851 128.646L209.554 115.104C210.024 113.27 209.906 111.683 209.201 110.343C208.496 109.003 207.321 108.333 205.675 108.333H98.4865C96.9585 108.333 95.46 109.003 93.9909 110.343C92.5217 111.683 91.5521 113.27 91.082 115.104L87.3797 128.646Z" fill="#172618"/>
</svg>
